<svg width="40" height="28" viewBox="0 0 40 28" fill="none" xmlns="http://www.w3.org/2000/svg">
    <mask id="path-1-inside-1_1_189" fill="white">
        <path fill-rule="evenodd" clip-rule="evenodd" d="M26.6636 4.16955C26.3171 4.38657 25.8054 4.35205 25.5172 4.0857C25.2289 3.81935 25.2775 3.43216 25.6273 3.21267L30.5078 0.142262C30.8544 -0.0747623 31.3661 -0.0402357 31.6543 0.223646C31.9393 0.487529 31.8939 0.877186 31.5442 1.09668L26.6636 4.16955ZM2.95394 14.9887C2.41634 15.1096 2.02123 15.3759 1.7589 15.7286C1.45772 16.1355 1.3217 16.6608 1.33141 17.2231C1.33465 17.4648 1.36704 17.7139 1.42209 17.9654C1.47715 18.2194 1.56135 18.4734 1.66499 18.7225C1.77186 18.9741 1.9014 19.2182 2.05362 19.4525C2.20259 19.6794 2.371 19.8964 2.5556 20.0937C3.009 20.5746 3.57251 20.9569 4.22347 21.1493C4.79022 21.3194 5.42822 21.3441 6.1148 21.164L6.12776 21.1616C6.20548 21.1419 6.28321 21.1345 6.36093 21.1394C6.41599 21.1419 6.47105 21.1493 6.5261 21.1616L6.5423 21.1567C6.7269 21.1098 6.91797 21.0654 7.10581 21.021L7.62074 20.9002C7.80858 20.8582 7.9867 20.8188 8.15511 20.7818C8.32028 20.7448 8.48869 20.7103 8.66033 20.6757C8.83845 20.6388 9.01657 20.6609 9.16555 20.7251L9.18174 20.7325C9.321 20.7966 9.42788 20.9002 9.47645 21.0309C9.48617 21.0531 9.48941 21.0703 9.49265 21.0901C9.53799 21.2454 9.59304 21.4057 9.63191 21.5611C9.98491 22.7646 10.3282 23.9237 10.7848 24.8633C10.8237 24.957 10.8723 25.0483 10.9176 25.142C11.0569 25.438 11.2026 25.7438 11.3645 26.0224C11.52 26.2937 11.6852 26.5354 11.873 26.713V26.7154C12.0123 26.8486 12.1742 26.9325 12.3653 26.9399C12.5758 26.9473 12.8381 26.8708 13.1684 26.676C13.3109 26.5749 13.4405 26.4885 13.5733 26.4022L13.6024 26.3825C13.991 26.126 14.3797 25.872 14.5481 25.5243C14.5222 25.5095 14.493 25.4947 14.4606 25.4823C14.3862 25.4503 14.2922 25.4182 14.1983 25.3886L14.1886 25.3862C13.8421 25.2752 13.4988 25.1617 13.2494 24.925C12.9968 24.6858 12.8608 24.338 12.9547 23.7708C12.9579 23.7363 12.9644 23.7067 12.9709 23.6771C12.9774 23.6426 12.9838 23.608 12.9871 23.5735C13.0292 23.317 13.0519 23.1839 13.0389 23.1469V23.1419C13.0292 23.1321 12.9612 23.0951 12.8252 22.9989C12.7863 22.9718 12.7442 22.9446 12.7086 22.915C12.5078 22.772 12.3653 22.6018 12.2746 22.4144C12.1742 22.2072 12.1353 21.9804 12.1386 21.7436C12.1418 21.5118 12.1872 21.2701 12.2552 21.0407C12.3394 20.7621 12.4592 20.4957 12.579 20.2762L12.5855 20.2688C12.6308 20.1874 12.7021 20.1209 12.7863 20.0715C12.877 20.0173 12.9871 19.9827 13.1004 19.9704H13.1069C15.5585 19.7115 17.5373 19.746 19.1987 19.9088C20.6982 20.0567 21.9321 20.3058 23.0299 20.5426C22.1911 19.815 21.4204 18.9593 20.7241 18.0271C19.827 16.8236 19.0562 15.4894 18.4344 14.1379C17.8061 12.7716 17.33 11.3856 17.0321 10.0933C16.7827 9.00821 16.6564 7.98721 16.6726 7.10184C15.7366 8.12531 14.4768 9.36827 12.6244 10.6211C10.5096 12.049 7.62074 13.4893 3.55308 14.6287C3.51098 14.6385 3.46888 14.6508 3.42678 14.6607L3.40734 14.6854C3.40734 14.6854 3.41058 14.6829 3.3361 14.7717L3.32962 14.7791C3.28752 14.8284 3.2357 14.8703 3.1774 14.9049C3.11263 14.9419 3.04138 14.9715 2.96366 14.9887H2.95394ZM21.4301 16.8975C22.0389 17.7878 22.7126 18.6165 23.4412 19.3341C24.1343 20.0148 24.8792 20.5993 25.6629 21.0407L25.7439 21.0457C25.7827 21.0481 25.8216 21.0481 25.854 21.0457H25.8669C25.9285 21.0432 25.99 21.0358 26.0548 21.021C26.1163 21.0062 26.1811 20.984 26.2491 20.9544C26.4143 20.8262 26.5503 20.6585 26.6604 20.4612C26.7835 20.2442 26.8741 19.9877 26.9324 19.7016C27.1106 18.8557 27.0264 17.773 26.7511 16.5769C26.4499 15.2699 25.9155 13.8321 25.2419 12.4239C24.5812 11.0403 23.7845 9.68888 22.936 8.5199C22.1296 7.40519 21.2779 6.45817 20.4553 5.80956C20.1476 5.56541 19.8496 5.37058 19.5679 5.23001C19.3056 5.0993 19.0627 5.01545 18.8392 4.98832H18.8327C18.7809 4.98092 18.7388 4.97846 18.7064 4.97599C18.6935 4.97599 18.7064 4.96859 18.6999 4.97106C18.6967 4.97106 18.6967 4.97599 18.6805 4.98586C18.6514 5.00559 18.6093 5.03518 18.5607 5.07217C18.5186 5.10177 18.4765 5.13876 18.4376 5.17329L18.4247 5.19302C18.049 5.7849 17.9194 6.72205 18.0004 7.8639C18.0846 9.02301 18.389 10.3868 18.8845 11.8024C20.2933 11.5558 21.3945 11.7827 22.1523 12.2636C22.596 12.5447 22.9166 12.9097 23.1141 13.3166C23.3085 13.7211 23.3797 14.1675 23.3214 14.6139C23.2113 15.4918 22.5927 16.3599 21.4301 16.8975ZM25.5496 22.0494C25.4848 22.0568 25.42 22.0568 25.3552 22.0494C25.2937 22.042 25.2322 22.0297 25.1739 22.0075C25.0864 21.9952 24.999 21.9828 24.9148 21.968C24.3027 21.8718 23.7068 21.7411 23.0656 21.603L23.0235 21.5932C20.8245 21.1172 18.0749 20.5204 13.6704 20.9347C13.6121 21.0629 13.5635 21.201 13.5247 21.3367C13.4858 21.4797 13.4632 21.6228 13.4599 21.7535C13.4599 21.857 13.4729 21.9532 13.502 22.0321C13.5247 22.0913 13.5603 22.1407 13.6089 22.1752L13.6866 22.2294C14.0461 22.4785 14.221 22.6018 14.3214 22.883C14.4023 23.1099 14.3667 23.3195 14.2955 23.7338C14.2858 23.7905 14.2793 23.8473 14.2663 23.904C14.2339 24.1037 14.276 24.2197 14.3538 24.2912C14.4347 24.3652 14.574 24.412 14.7165 24.4564L14.7327 24.4613C15.1861 24.6093 15.6395 24.7598 15.8727 25.2505C15.8986 25.2949 15.9148 25.3442 15.9212 25.3936C15.9277 25.4429 15.9277 25.4922 15.9148 25.544V25.5465C15.8144 25.9435 15.6006 26.2469 15.3318 26.5058C15.0695 26.7598 14.7586 26.9621 14.4509 27.1643L14.3797 27.2111C14.2728 27.2802 14.1692 27.3492 14.0688 27.4232L14.017 27.4578C13.3142 27.8844 12.715 28.0373 12.1872 27.9954C11.6528 27.9535 11.2091 27.7118 10.8334 27.3517C10.5743 27.1051 10.3606 26.8018 10.1695 26.4787C9.98167 26.1581 9.81974 25.8202 9.66429 25.4922C9.62219 25.401 9.57685 25.3097 9.53151 25.2185C9.0522 24.2345 8.69919 23.0384 8.33647 21.8028C8.21988 21.8275 8.10329 21.857 7.9867 21.8817C7.80534 21.9236 7.62722 21.9631 7.45558 22.005C7.28069 22.0469 7.10905 22.0889 6.94064 22.1283L6.93093 22.1308C6.90502 22.1357 6.88559 22.1431 6.86939 22.1481L6.85968 22.1505C6.73661 22.19 6.64593 22.2171 6.5423 22.2245C6.44838 22.2319 6.36093 22.2245 6.2573 22.1949C5.32135 22.3922 4.45665 22.333 3.68586 22.0963C2.81144 21.825 2.06009 21.3194 1.46419 20.6856L1.45772 20.6807C1.23425 20.4365 1.03346 20.1751 0.855339 19.8989C0.673978 19.6202 0.521764 19.3292 0.39546 19.0333C0.269155 18.7373 0.171997 18.434 0.107225 18.1306C0.0424538 17.8298 0.0068293 17.5289 0.000352131 17.2329C-0.00936363 16.4882 0.181713 15.7828 0.605968 15.2131C0.988121 14.7026 1.55811 14.3031 2.33213 14.0812C2.36128 14.0466 2.38395 14.017 2.40986 13.9924C2.45196 13.9504 2.4973 13.9135 2.55884 13.874L2.57179 13.8666C2.63656 13.8247 2.69809 13.7975 2.76934 13.7704C2.83411 13.7482 2.9086 13.726 3.009 13.6989L3.09968 13.6742C7.21592 12.5201 10.0626 11.0453 12.1062 9.60256C14.1497 8.15984 15.3934 6.74918 16.2904 5.72325L16.3099 5.70105C16.8119 5.12889 17.2167 4.67265 17.6215 4.36438C17.7251 4.28546 17.8158 4.22134 17.913 4.16708C18.0134 4.11036 18.117 4.06597 18.2368 4.03144C18.3631 3.99691 18.4862 3.97719 18.619 3.97225C18.7485 3.96732 18.8878 3.97718 19.0497 3.99691C19.4319 4.04377 19.8205 4.16462 20.2124 4.35205C20.6107 4.54194 21.0123 4.80089 21.4106 5.11656C22.298 5.81696 23.2113 6.8281 24.0695 8.0094C24.9634 9.23756 25.7989 10.6482 26.4855 12.0909C27.1915 13.5707 27.7486 15.0849 28.0627 16.4734C28.3509 17.7533 28.4351 18.9297 28.2343 19.8693C28.1501 20.2639 28.0174 20.624 27.8328 20.9347C27.6514 21.2405 27.415 21.5044 27.1235 21.7189C27.1106 21.7288 27.0944 21.7387 27.0814 21.7485C27.062 21.7584 27.0425 21.7707 27.0231 21.7806C26.832 21.8768 26.6474 21.9458 26.4628 21.9902C26.275 22.0371 26.0872 22.0593 25.8993 22.0667H25.8864C25.8216 22.0667 25.7601 22.0667 25.7018 22.0642C25.6564 22.0568 25.6014 22.0543 25.5496 22.0494ZM33.5197 19.3539C33.0696 19.3687 32.6939 19.1023 32.6777 18.7595C32.6583 18.4167 33.008 18.1306 33.4582 18.1183L39.1581 17.9555C39.605 17.9457 39.9807 18.212 40.0001 18.5499C40.0163 18.8927 39.6698 19.1788 39.2196 19.1936L33.5197 19.3539ZM33.3578 15.1367C32.9109 15.1811 32.5028 14.9419 32.4445 14.6065C32.3862 14.2661 32.7004 13.9554 33.1408 13.911L38.4067 13.3783C38.8537 13.3339 39.2617 13.5731 39.32 13.9085C39.3783 14.2489 39.0642 14.5596 38.6237 14.604L33.3578 15.1367ZM32.2502 11.2648C31.8259 11.3757 31.3596 11.2056 31.2138 10.8825C31.0649 10.5594 31.2916 10.2043 31.7158 10.0933L37.1145 8.66541C37.5388 8.5495 38.0052 8.7246 38.1509 9.04767C38.2999 9.37074 38.0732 9.72587 37.6489 9.83685L32.2502 11.2648ZM29.7047 7.53836C29.316 7.70853 28.8173 7.60495 28.5971 7.30654C28.3736 7.0106 28.5096 6.63327 28.9015 6.4631L34.0185 4.22874C34.4071 4.05857 34.9058 4.16215 35.1261 4.46056C35.3495 4.7565 35.2135 5.13383 34.8216 5.30399L29.7047 7.53836Z"/>
    </mask>
    <path fill-rule="evenodd" clip-rule="evenodd" d="M26.6636 4.16955C26.3171 4.38657 25.8054 4.35205 25.5172 4.0857C25.2289 3.81935 25.2775 3.43216 25.6273 3.21267L30.5078 0.142262C30.8544 -0.0747623 31.3661 -0.0402357 31.6543 0.223646C31.9393 0.487529 31.8939 0.877186 31.5442 1.09668L26.6636 4.16955ZM2.95394 14.9887C2.41634 15.1096 2.02123 15.3759 1.7589 15.7286C1.45772 16.1355 1.3217 16.6608 1.33141 17.2231C1.33465 17.4648 1.36704 17.7139 1.42209 17.9654C1.47715 18.2194 1.56135 18.4734 1.66499 18.7225C1.77186 18.9741 1.9014 19.2182 2.05362 19.4525C2.20259 19.6794 2.371 19.8964 2.5556 20.0937C3.009 20.5746 3.57251 20.9569 4.22347 21.1493C4.79022 21.3194 5.42822 21.3441 6.1148 21.164L6.12776 21.1616C6.20548 21.1419 6.28321 21.1345 6.36093 21.1394C6.41599 21.1419 6.47105 21.1493 6.5261 21.1616L6.5423 21.1567C6.7269 21.1098 6.91797 21.0654 7.10581 21.021L7.62074 20.9002C7.80858 20.8582 7.9867 20.8188 8.15511 20.7818C8.32028 20.7448 8.48869 20.7103 8.66033 20.6757C8.83845 20.6388 9.01657 20.6609 9.16555 20.7251L9.18174 20.7325C9.321 20.7966 9.42788 20.9002 9.47645 21.0309C9.48617 21.0531 9.48941 21.0703 9.49265 21.0901C9.53799 21.2454 9.59304 21.4057 9.63191 21.5611C9.98491 22.7646 10.3282 23.9237 10.7848 24.8633C10.8237 24.957 10.8723 25.0483 10.9176 25.142C11.0569 25.438 11.2026 25.7438 11.3645 26.0224C11.52 26.2937 11.6852 26.5354 11.873 26.713V26.7154C12.0123 26.8486 12.1742 26.9325 12.3653 26.9399C12.5758 26.9473 12.8381 26.8708 13.1684 26.676C13.3109 26.5749 13.4405 26.4885 13.5733 26.4022L13.6024 26.3825C13.991 26.126 14.3797 25.872 14.5481 25.5243C14.5222 25.5095 14.493 25.4947 14.4606 25.4823C14.3862 25.4503 14.2922 25.4182 14.1983 25.3886L14.1886 25.3862C13.8421 25.2752 13.4988 25.1617 13.2494 24.925C12.9968 24.6858 12.8608 24.338 12.9547 23.7708C12.9579 23.7363 12.9644 23.7067 12.9709 23.6771C12.9774 23.6426 12.9838 23.608 12.9871 23.5735C13.0292 23.317 13.0519 23.1839 13.0389 23.1469V23.1419C13.0292 23.1321 12.9612 23.0951 12.8252 22.9989C12.7863 22.9718 12.7442 22.9446 12.7086 22.915C12.5078 22.772 12.3653 22.6018 12.2746 22.4144C12.1742 22.2072 12.1353 21.9804 12.1386 21.7436C12.1418 21.5118 12.1872 21.2701 12.2552 21.0407C12.3394 20.7621 12.4592 20.4957 12.579 20.2762L12.5855 20.2688C12.6308 20.1874 12.7021 20.1209 12.7863 20.0715C12.877 20.0173 12.9871 19.9827 13.1004 19.9704H13.1069C15.5585 19.7115 17.5373 19.746 19.1987 19.9088C20.6982 20.0567 21.9321 20.3058 23.0299 20.5426C22.1911 19.815 21.4204 18.9593 20.7241 18.0271C19.827 16.8236 19.0562 15.4894 18.4344 14.1379C17.8061 12.7716 17.33 11.3856 17.0321 10.0933C16.7827 9.00821 16.6564 7.98721 16.6726 7.10184C15.7366 8.12531 14.4768 9.36827 12.6244 10.6211C10.5096 12.049 7.62074 13.4893 3.55308 14.6287C3.51098 14.6385 3.46888 14.6508 3.42678 14.6607L3.40734 14.6854C3.40734 14.6854 3.41058 14.6829 3.3361 14.7717L3.32962 14.7791C3.28752 14.8284 3.2357 14.8703 3.1774 14.9049C3.11263 14.9419 3.04138 14.9715 2.96366 14.9887H2.95394ZM21.4301 16.8975C22.0389 17.7878 22.7126 18.6165 23.4412 19.3341C24.1343 20.0148 24.8792 20.5993 25.6629 21.0407L25.7439 21.0457C25.7827 21.0481 25.8216 21.0481 25.854 21.0457H25.8669C25.9285 21.0432 25.99 21.0358 26.0548 21.021C26.1163 21.0062 26.1811 20.984 26.2491 20.9544C26.4143 20.8262 26.5503 20.6585 26.6604 20.4612C26.7835 20.2442 26.8741 19.9877 26.9324 19.7016C27.1106 18.8557 27.0264 17.773 26.7511 16.5769C26.4499 15.2699 25.9155 13.8321 25.2419 12.4239C24.5812 11.0403 23.7845 9.68888 22.936 8.5199C22.1296 7.40519 21.2779 6.45817 20.4553 5.80956C20.1476 5.56541 19.8496 5.37058 19.5679 5.23001C19.3056 5.0993 19.0627 5.01545 18.8392 4.98832H18.8327C18.7809 4.98092 18.7388 4.97846 18.7064 4.97599C18.6935 4.97599 18.7064 4.96859 18.6999 4.97106C18.6967 4.97106 18.6967 4.97599 18.6805 4.98586C18.6514 5.00559 18.6093 5.03518 18.5607 5.07217C18.5186 5.10177 18.4765 5.13876 18.4376 5.17329L18.4247 5.19302C18.049 5.7849 17.9194 6.72205 18.0004 7.8639C18.0846 9.02301 18.389 10.3868 18.8845 11.8024C20.2933 11.5558 21.3945 11.7827 22.1523 12.2636C22.596 12.5447 22.9166 12.9097 23.1141 13.3166C23.3085 13.7211 23.3797 14.1675 23.3214 14.6139C23.2113 15.4918 22.5927 16.3599 21.4301 16.8975ZM25.5496 22.0494C25.4848 22.0568 25.42 22.0568 25.3552 22.0494C25.2937 22.042 25.2322 22.0297 25.1739 22.0075C25.0864 21.9952 24.999 21.9828 24.9148 21.968C24.3027 21.8718 23.7068 21.7411 23.0656 21.603L23.0235 21.5932C20.8245 21.1172 18.0749 20.5204 13.6704 20.9347C13.6121 21.0629 13.5635 21.201 13.5247 21.3367C13.4858 21.4797 13.4632 21.6228 13.4599 21.7535C13.4599 21.857 13.4729 21.9532 13.502 22.0321C13.5247 22.0913 13.5603 22.1407 13.6089 22.1752L13.6866 22.2294C14.0461 22.4785 14.221 22.6018 14.3214 22.883C14.4023 23.1099 14.3667 23.3195 14.2955 23.7338C14.2858 23.7905 14.2793 23.8473 14.2663 23.904C14.2339 24.1037 14.276 24.2197 14.3538 24.2912C14.4347 24.3652 14.574 24.412 14.7165 24.4564L14.7327 24.4613C15.1861 24.6093 15.6395 24.7598 15.8727 25.2505C15.8986 25.2949 15.9148 25.3442 15.9212 25.3936C15.9277 25.4429 15.9277 25.4922 15.9148 25.544V25.5465C15.8144 25.9435 15.6006 26.2469 15.3318 26.5058C15.0695 26.7598 14.7586 26.9621 14.4509 27.1643L14.3797 27.2111C14.2728 27.2802 14.1692 27.3492 14.0688 27.4232L14.017 27.4578C13.3142 27.8844 12.715 28.0373 12.1872 27.9954C11.6528 27.9535 11.2091 27.7118 10.8334 27.3517C10.5743 27.1051 10.3606 26.8018 10.1695 26.4787C9.98167 26.1581 9.81974 25.8202 9.66429 25.4922C9.62219 25.401 9.57685 25.3097 9.53151 25.2185C9.0522 24.2345 8.69919 23.0384 8.33647 21.8028C8.21988 21.8275 8.10329 21.857 7.9867 21.8817C7.80534 21.9236 7.62722 21.9631 7.45558 22.005C7.28069 22.0469 7.10905 22.0889 6.94064 22.1283L6.93093 22.1308C6.90502 22.1357 6.88559 22.1431 6.86939 22.1481L6.85968 22.1505C6.73661 22.19 6.64593 22.2171 6.5423 22.2245C6.44838 22.2319 6.36093 22.2245 6.2573 22.1949C5.32135 22.3922 4.45665 22.333 3.68586 22.0963C2.81144 21.825 2.06009 21.3194 1.46419 20.6856L1.45772 20.6807C1.23425 20.4365 1.03346 20.1751 0.855339 19.8989C0.673978 19.6202 0.521764 19.3292 0.39546 19.0333C0.269155 18.7373 0.171997 18.434 0.107225 18.1306C0.0424538 17.8298 0.0068293 17.5289 0.000352131 17.2329C-0.00936363 16.4882 0.181713 15.7828 0.605968 15.2131C0.988121 14.7026 1.55811 14.3031 2.33213 14.0812C2.36128 14.0466 2.38395 14.017 2.40986 13.9924C2.45196 13.9504 2.4973 13.9135 2.55884 13.874L2.57179 13.8666C2.63656 13.8247 2.69809 13.7975 2.76934 13.7704C2.83411 13.7482 2.9086 13.726 3.009 13.6989L3.09968 13.6742C7.21592 12.5201 10.0626 11.0453 12.1062 9.60256C14.1497 8.15984 15.3934 6.74918 16.2904 5.72325L16.3099 5.70105C16.8119 5.12889 17.2167 4.67265 17.6215 4.36438C17.7251 4.28546 17.8158 4.22134 17.913 4.16708C18.0134 4.11036 18.117 4.06597 18.2368 4.03144C18.3631 3.99691 18.4862 3.97719 18.619 3.97225C18.7485 3.96732 18.8878 3.97718 19.0497 3.99691C19.4319 4.04377 19.8205 4.16462 20.2124 4.35205C20.6107 4.54194 21.0123 4.80089 21.4106 5.11656C22.298 5.81696 23.2113 6.8281 24.0695 8.0094C24.9634 9.23756 25.7989 10.6482 26.4855 12.0909C27.1915 13.5707 27.7486 15.0849 28.0627 16.4734C28.3509 17.7533 28.4351 18.9297 28.2343 19.8693C28.1501 20.2639 28.0174 20.624 27.8328 20.9347C27.6514 21.2405 27.415 21.5044 27.1235 21.7189C27.1106 21.7288 27.0944 21.7387 27.0814 21.7485C27.062 21.7584 27.0425 21.7707 27.0231 21.7806C26.832 21.8768 26.6474 21.9458 26.4628 21.9902C26.275 22.0371 26.0872 22.0593 25.8993 22.0667H25.8864C25.8216 22.0667 25.7601 22.0667 25.7018 22.0642C25.6564 22.0568 25.6014 22.0543 25.5496 22.0494ZM33.5197 19.3539C33.0696 19.3687 32.6939 19.1023 32.6777 18.7595C32.6583 18.4167 33.008 18.1306 33.4582 18.1183L39.1581 17.9555C39.605 17.9457 39.9807 18.212 40.0001 18.5499C40.0163 18.8927 39.6698 19.1788 39.2196 19.1936L33.5197 19.3539ZM33.3578 15.1367C32.9109 15.1811 32.5028 14.9419 32.4445 14.6065C32.3862 14.2661 32.7004 13.9554 33.1408 13.911L38.4067 13.3783C38.8537 13.3339 39.2617 13.5731 39.32 13.9085C39.3783 14.2489 39.0642 14.5596 38.6237 14.604L33.3578 15.1367ZM32.2502 11.2648C31.8259 11.3757 31.3596 11.2056 31.2138 10.8825C31.0649 10.5594 31.2916 10.2043 31.7158 10.0933L37.1145 8.66541C37.5388 8.5495 38.0052 8.7246 38.1509 9.04767C38.2999 9.37074 38.0732 9.72587 37.6489 9.83685L32.2502 11.2648ZM29.7047 7.53836C29.316 7.70853 28.8173 7.60495 28.5971 7.30654C28.3736 7.0106 28.5096 6.63327 28.9015 6.4631L34.0185 4.22874C34.4071 4.05857 34.9058 4.16215 35.1261 4.46056C35.3495 4.7565 35.2135 5.13383 34.8216 5.30399L29.7047 7.53836Z" fill="#303036" stroke="#616161" stroke-opacity="0.94" stroke-width="2" mask="url(#path-1-inside-1_1_189)"/>
</svg>
