<svg width="31" height="25" viewBox="0 0 31 25" fill="none" xmlns="http://www.w3.org/2000/svg">
    <path d="M8.91878 0H22.0812C24.5305 0 26.7589 0.805664 28.3756 2.09961C29.9949 3.39559 31 5.18392 31 7.14925V17.8528C31 19.814 29.9949 21.6003 28.3807 22.8963L28.3756 22.9004C26.7563 24.1964 24.5279 25 22.0838 25H8.91878C6.46701 25 4.23604 24.1943 2.61929 22.9004L2.55838 22.8455C0.979696 21.5556 0 19.7896 0 17.8507V7.14925C0 5.18188 1.00254 3.39559 2.61929 2.09961C4.23604 0.80363 6.46447 0 8.91878 0ZM23.2259 6.31104L23.2437 6.33342H28.7259C28.5051 5.17782 27.8173 4.14022 26.8274 3.34473C25.6091 2.36816 23.9289 1.76188 22.0812 1.76188H19.83L23.2259 6.31104ZM20.6904 6.33342L17.2767 1.76188H9.78934L13.2437 6.33342H20.6904ZM10.6878 6.33342L7.34772 1.9104C6.1269 2.1464 5.033 2.653 4.17259 3.34473C3.18274 4.13818 2.49746 5.17782 2.27411 6.33342H10.6878ZM28.802 8.0953H2.19797V17.8528C2.19797 19.3115 2.93147 20.6401 4.11675 21.6126L4.17259 21.6553C5.39086 22.6318 7.0736 23.2402 8.91878 23.2402H22.0812C23.9289 23.2402 25.6091 22.6339 26.8249 21.6593L26.83 21.6553C28.0457 20.6807 28.802 19.3339 28.802 17.8528V8.0953ZM12.9315 11.1796L19.7411 14.7298C19.8503 14.7868 19.9492 14.86 20.0279 14.9495C20.3376 15.3097 20.2234 15.804 19.7741 16.0522L12.9924 19.2607C12.8223 19.3726 12.6041 19.4397 12.3629 19.4397C11.8147 19.4397 11.3706 19.0837 11.3706 18.6442V11.8306H11.3756C11.3756 11.674 11.434 11.5153 11.5533 11.377C11.868 11.0168 12.4848 10.9294 12.9315 11.1796Z" fill="#616161" fill-opacity="0.94"/>
</svg>
